<?xml version="1.0" encoding="UTF-8"?>
<svg id="Layer_2" data-name="Layer 2" xmlns="http://www.w3.org/2000/svg" xmlns:xlink="http://www.w3.org/1999/xlink" viewBox="0 0 540.41 546.33">
  <defs>
    <style>
      .cls-1 {
        fill: url(#linear-gradient-2);
      }

      .cls-2 {
        fill: url(#linear-gradient-3);
      }

      .cls-3 {
        fill: url(#linear-gradient);
      }

      .cls-4 {
        fill: url(#linear-gradient-4);
      }
    </style>
    <linearGradient id="linear-gradient" x1="532.89" y1="-68.15" x2="-139.22" y2="575.91" gradientUnits="userSpaceOnUse">
      <stop offset=".09" stop-color="#c25835"/>
      <stop offset=".13" stop-color="#ba5339"/>
      <stop offset=".42" stop-color="#823457"/>
      <stop offset=".68" stop-color="#591d6d"/>
      <stop offset=".88" stop-color="#41107b"/>
      <stop offset="1" stop-color="#380b80"/>
    </linearGradient>
    <linearGradient id="linear-gradient-2" x1="531.61" y1="-66.94" x2="-137.25" y2="574.02" xlink:href="#linear-gradient"/>
    <linearGradient id="linear-gradient-3" x1="565.12" y1="66.61" x2="-114.55" y2="588.88" gradientUnits="userSpaceOnUse">
      <stop offset=".04" stop-color="#c2695f"/>
      <stop offset=".06" stop-color="#b45d5b"/>
      <stop offset=".12" stop-color="#944453"/>
      <stop offset=".18" stop-color="#792f4d"/>
      <stop offset=".26" stop-color="#631d48"/>
      <stop offset=".34" stop-color="#521043"/>
      <stop offset=".45" stop-color="#460641"/>
      <stop offset=".59" stop-color="#3f013f"/>
      <stop offset="1" stop-color="#3e003f"/>
    </linearGradient>
    <linearGradient id="linear-gradient-4" x1="563.93" y1="67.5" x2="-112.55" y2="587.32" xlink:href="#linear-gradient-3"/>
  </defs>
  <g id="Layer_1-2" data-name="Layer 1">
    <path class="cls-3" d="m371.12,295.83c-10.55,0-18.08-2.26-24.43-7.32-7.82-6.24-11.18-14.67-16.99-55.23-2.41-16.89-4.22-32.22-5.81-45.74-2.33-19.75-4.54-38.43-6.63-40.35-.7.93-1.4,5.3-2.01,9.19-2.15,13.6-6.16,38.92-24.6,50.97-6.24,4.08-12.73,4.35-17.95,4.58-.77.03-1.51.06-2.23.11h-.06s-.06,0-.06,0c-.72-.04-1.46-.07-2.23-.11-5.22-.22-11.71-.5-17.95-4.58-18.43-12.05-22.44-37.36-24.6-50.96-.62-3.89-1.31-8.26-2.01-9.19-2.08,1.93-4.28,20.54-6.6,40.21-1.6,13.57-3.42,28.94-5.85,45.89-5.78,40.56-9.14,48.99-16.97,55.23-6.35,5.06-13.89,7.32-24.43,7.32-11.56,0-26.39-2.79-45.17-6.33-34.94-6.59-52.46-9.89-63.03-21.68-13.9-15.49-15.24-36.86-13.92-52.06,1.6-18.35,7.88-37.87,17.23-53.56,8.18-13.74,17.58-22.55,23.21-27.82,1.45-1.36,2.93-2.75,3.66-3.6-6.75.5-38.52,11.24-68.63,34.31l-1.52-1.2C62.54,70.63,157.88,8.03,270.35.53c5.29-.35,10.65-.53,15.93-.53,50.25,0,98.96,16.03,140.86,46.36,40.36,29.21,72.1,69.76,91.79,117.27l1.42,3.43-2.95-2.25c-30-22.87-61.55-33.53-68.27-34.04.73.85,2.22,2.25,3.67,3.61,5.62,5.27,15.03,14.08,23.21,27.82,9.34,15.7,15.62,35.22,17.22,53.56,1.33,15.2,0,36.57-13.91,52.06-10.58,11.78-28.08,15.08-62.96,21.66-18.85,3.55-33.68,6.35-45.25,6.35Z"/>
    <path class="cls-1" d="m93.08,130.01c1.07,1.83-14.83,11.58-27.4,32.7-17.24,28.93-27.2,77.95-3.43,104.44,10.35,11.54,27.72,14.81,62.47,21.36,35.35,6.66,54.85,10.33,68.8-.79,7.45-5.94,10.83-14.11,16.6-54.59,6.95-48.61,9.23-86.88,13.45-87.04,4.51-.16,1.13,43.39,27.15,60.4,6.9,4.51,14.09,4.19,19.69,4.52,5.61-.33,12.79-.01,19.69-4.52,26.03-17.01,22.64-60.56,27.15-60.4,4.23.16,6.51,38.43,13.44,87.04,5.79,40.48,9.17,48.65,16.62,54.59,13.94,11.12,33.45,7.45,68.79.79,34.74-6.55,52.12-9.82,62.48-21.36,23.77-26.49,13.79-75.51-3.43-104.44-12.57-21.12-28.47-30.87-27.41-32.71,1.18-2.02,36.48,8.26,70.27,34.01C476.98,65.04,381.4-5.87,270.41,1.53,155.97,9.16,62.52,73.14,22.45,164.3c33.9-25.97,69.46-36.32,70.63-34.29Z"/>
    <path class="cls-2" d="m37.01,408.21C13.81,368.09,1.5,322.02.41,271.28c-.8-37.55,6.31-73.68,21.12-107.38l.1-.24.2-.16c31.71-24.29,64.28-34.74,70.29-34.74.38,0,1.38,0,1.81.75.78,1.33-.67,2.69-4.55,6.33-5.54,5.19-14.82,13.88-22.85,27.38-15.94,26.75-27.58,76.47-3.55,103.26,10.12,11.28,27.41,14.54,61.87,21.04,18.72,3.53,33.47,6.31,44.85,6.31,10.06,0,17.21-2.12,23.19-6.89,7.23-5.77,10.59-14.37,16.23-53.95,2.42-16.92,4.24-32.29,5.84-45.84,3.77-31.84,5.12-41.92,8.56-42.05h0c2.28,0,2.82,3.44,4.02,10.96,2.26,14.23,6.03,38.04,23.72,49.6,5.78,3.78,11.71,4.03,16.94,4.25.76.03,1.49.06,2.2.1.71-.04,1.45-.07,2.2-.1,5.23-.22,11.16-.47,16.94-4.25,17.69-11.56,21.47-35.38,23.72-49.6,1.19-7.53,1.74-10.96,3.95-10.96,3.5.13,4.96,10.95,8.65,42.2,1.6,13.52,3.4,28.84,5.81,45.7,5.66,39.58,9.02,48.18,16.25,53.95,5.97,4.76,13.12,6.89,23.18,6.89,11.38,0,26.13-2.78,44.8-6.3,34.51-6.51,51.79-9.77,61.92-21.04,24.02-26.77,12.39-76.5-3.54-103.26-8.03-13.5-17.31-22.19-22.86-27.38-3.88-3.64-5.33-5-4.56-6.34.44-.75,1.43-.75,1.81-.75,5.96,0,38.32,10.37,69.93,34.46l.21.16.1.25c14.25,34.38,21.48,70.59,21.48,107.63,0,72.72-28.08,141.1-79.08,192.52-51,51.43-118.8,79.75-190.92,79.75-46.07,0-91.53-11.9-131.5-34.42L0,546.33l37.01-138.12Z"/>
    <path class="cls-4" d="m1.41,271.26c1.06,49.89,13.36,96.65,36.67,136.81L1.41,544.92l137.59-36.87-.08-.08c38.88,22.01,83.73,34.56,131.49,34.56,148.56,0,269-121.45,269-271.27,0-37.65-7.63-74.03-21.4-107.25-33.78-25.75-69.09-36.03-70.27-34.01-1.06,1.84,14.84,11.59,27.41,32.71,17.22,28.93,27.2,77.95,3.43,104.44-10.36,11.54-27.74,14.81-62.48,21.36-35.34,6.66-54.85,10.33-68.79-.79-7.45-5.94-10.83-14.11-16.62-54.59-6.93-48.61-9.21-86.88-13.44-87.04-4.51-.16-1.12,43.39-27.15,60.4-6.9,4.51-14.08,4.19-19.69,4.52-5.6-.33-12.79-.01-19.69-4.52-26.02-17.01-22.64-60.56-27.15-60.4-4.22.16-6.5,38.43-13.45,87.04-5.77,40.48-9.15,48.65-16.6,54.59-13.95,11.12-33.45,7.45-68.8.79-34.75-6.55-52.12-9.82-62.47-21.36-23.77-26.49-13.81-75.51,3.43-104.44,12.57-21.12,28.47-30.87,27.4-32.7-1.17-2.03-36.73,8.32-70.63,34.29C8.11,196.92.6,233.02,1.41,271.26Z"/>
  </g>
</svg>